<?xml version="1.0" encoding="utf-8"?>
<!DOCTYPE svg PUBLIC "-//W3C//DTD SVG 1.0//EN" "http://www.w3.org/TR/2001/REC-SVG-20010904/DTD/svg10.dtd">
<svg version="1.0" xmlns="http://www.w3.org/2000/svg" width="630px" height="630px" viewBox="0 0 630 630" preserveAspectRatio="xMidYMid meet">
 <g fill="#ff353a">
  <path d="M242 577.5 c-0.8 -0.2 -5.5 -0.9 -10.5 -1.5 -17.6 -2.4 -38 -9.1 -58.4 -19 -57.7 -28.3 -100.9 -81.7 -117.1 -145.2 -5.8 -22.4 -8.3 -51.9 -6.9 -79.3 2.4 -46.2 15.1 -76.4 44.2 -104.7 10.1 -9.9 11.3 -10.8 14.8 -10.8 3.7 0 3.9 0.2 3.9 3.1 0 1.6 -1.3 8.3 -2.9 14.7 -7.7 30.5 -10.6 55.2 -9.8 82.7 1.1 37.1 8.4 67.7 23.7 99 34.2 69.9 104.3 112.8 184 112.7 44.3 -0.1 81.9 -9.9 108.7 -28.4 8.4 -5.8 21.1 -18.8 26.6 -27.1 7.5 -11.2 13 -26.5 14.3 -39.2 2 -19 -13.9 -57.1 -44.2 -106.1 -9.1 -14.7 -9.4 -15.1 -12.4 -14.6 -1.6 0.2 -3 0.8 -3 1.2 0 0.4 2.7 7.6 5.9 16.1 12.6 32.5 17.1 54.9 17.1 84.6 0 20.2 -2.3 31 -10.1 46.7 -11.1 22.3 -32.9 42.3 -56.5 51.6 -23.5 9.4 -47.5 10.4 -77.1 3.5 -24.2 -5.7 -43.7 -15.1 -69 -33.3 -9.4 -6.7 -10.3 -7.6 -10.3 -10.5 0 -3.2 0.1 -3.2 12.1 -7.6 68.5 -24.8 122.2 -77.6 143.3 -140.9 2.5 -7.7 4.6 -14.8 4.6 -15.9 0 -1.5 -1.5 -2.8 -5.4 -4.7 -3.4 -1.7 -7.9 -5.3 -12 -9.6 -3.6 -3.9 -7 -7 -7.6 -7 -2 0 -23.5 10.1 -33.1 15.5 -23.9 13.5 -44 28.6 -63.8 47.9 -25.2 24.6 -48.2 54.3 -62.6 81 -4.5 8.2 -4.8 8.6 -8.1 8.6 -3 0 -3.9 -0.7 -7.9 -6.1 -13.3 -18.1 -25.3 -45.5 -32.1 -73.4 -3.4 -14 -3.2 -18.7 1.2 -29.3 19.9 -48 59.4 -80 110.4 -89.4 20 -3.7 63.5 -2.7 81.5 1.8 l2.6 0.6 -0.3 -8.8 -0.3 -8.9 -10.5 -4.7 c-18.1 -8.1 -38.2 -14.2 -57 -17.3 -38.9 -6.3 -74.8 9 -98.2 42 -6.2 8.6 -14.7 25.8 -19.3 38.9 -5.2 14.7 -9.5 30.7 -9.5 35.3 0 3.1 -0.2 3.3 -3.4 3.3 l-3.4 0 -0.8 -6.7 c-4.3 -39 10.8 -140.9 28.6 -192.8 5.2 -15.4 16.4 -38.1 23.1 -46.9 10.8 -14.2 20.9 -19.6 36.5 -19.6 17.6 0 32.7 4.7 51.5 16.1 l10 6 8.3 -8.3 c14.3 -14.4 26 -19.6 45.6 -20.5 19.1 -0.9 30.4 3.4 44.4 16.7 20.9 20 33.5 51.2 38.1 94.9 0.8 7.5 1.5 18.9 1.5 25.3 l0 11.7 5.3 3.4 c7.4 4.8 14.9 13.6 20.2 23.7 l4.4 8.7 21.8 0.6 c41.5 1.2 67.4 6.7 85.9 18.2 15.2 9.5 22.4 22.3 22.4 39.9 0 13.6 -8.2 28.6 -22.6 41.5 l-5.5 4.8 6.3 4.6 c8 5.7 20.2 18.3 25.7 26.6 9.1 13.5 12.5 24.3 12.4 39.7 -0.1 17.4 -3.6 27 -13.2 36.4 -10.3 10.1 -26.8 16 -50.8 18 -7 0.6 -12.8 1.2 -12.9 1.3 0 0.1 -0.8 3.3 -1.7 7 -7.3 30.1 -37 52.6 -81.3 61.6 -15.2 3.1 -25.3 4.2 -44.9 4.8 l-18 0.6 -6.5 6.2 c-15.3 14.6 -35.5 24 -60.5 28 -7.9 1.3 -44.3 2 -49.5 1z m284.2 -140.6 c6.7 -1.5 13.2 -6 16.2 -11.2 2.5 -4.2 2.6 -4.6 1.2 -8.5 -5.2 -14.6 -22.8 -30.3 -48.5 -43.1 -16.9 -8.5 -16.1 -10.3 -7.5 15.1 10.8 32.2 16.3 42.7 24.9 48 3.1 1.9 3.9 1.8 13.7 -0.3z m-7.2 -116.9 c4.5 -2.3 6.4 -4.5 9 -10.3 5.5 -12.3 3.3 -19.5 -7.3 -24.6 -10.1 -4.9 -19.7 -6.4 -40.2 -6.5 -19.9 0 -23.5 0.5 -23.5 3.3 0 1 1.6 5 3.5 8.9 4.7 9.4 14.4 18.4 26.4 24.6 14.5 7.5 23.7 8.8 32.1 4.6z m-168.5 -169.2 c-3.6 -24.5 -12.7 -52.9 -20.8 -65.1 -5.8 -8.5 -7.1 -8.5 -15.5 0 -6.2 6.1 -14.3 16.9 -15.8 20.7 -0.9 2.3 28.8 39.5 45.1 56.5 l8 8.4 0.3 -4.8 c0.2 -2.6 -0.4 -9.7 -1.3 -15.7z m-159.5 -3.8 c14.6 -7.3 30.1 -11 50.2 -11.9 l13.8 -0.6 -6.3 -10 c-16.6 -26.5 -34.8 -44.5 -45.1 -44.5 -8.1 0 -16 10.2 -22 28.5 -3.1 9.4 -7.1 30.4 -8.2 42.3 l-0.7 8.4 6.4 -4.7 c3.5 -2.6 8.9 -6 11.9 -7.5z"/>
  <path d="M437 206.1 c0 -1.5 1.7 -6.6 3.9 -11.2 10.3 -22.5 15.3 -48.8 13.1 -68.8 -2 -18 -8.3 -37 -17 -50.8 -2.3 -3.7 -4 -7.7 -4 -9.4 0 -2.7 0.3 -2.9 3.5 -2.9 2 0 6.4 1.5 10.3 3.4 22 11.1 51.1 15.8 74.7 12.2 13.3 -2.1 30.9 -7.8 43.3 -14 5.7 -2.9 10.5 -4.6 12.7 -4.6 3.3 0 3.5 0.2 3.5 3.3 0 2.3 -2.1 6.6 -7.5 15.2 -10.8 17.2 -16.4 33.2 -16.5 47.5 0 13.2 5.5 36.5 13.6 57.5 2.6 6.6 4.9 13.7 5.2 15.9 l0.4 3.8 -4.8 -0.4 c-2.9 -0.3 -9.6 -2.6 -16.6 -5.7 -25.1 -11.2 -47.5 -14.2 -67.3 -9.2 -11.9 3.1 -24.6 8.7 -35.5 15.5 -10.4 6.6 -15 7.5 -15 2.7z"/>
 </g>
 <g fill="#ffffff">
  <path d="M246.7 600.3 c-0.3 -0.2 -2.9 -0.7 -5.9 -0.9 -8.3 -0.7 -10.2 -1 -12 -1.8 -0.9 -0.4 -2.2 -0.5 -2.8 -0.1 -0.6 0.4 -1.7 0.1 -2.5 -0.5 -0.8 -0.7 -2.2 -1 -3 -0.6 -0.8 0.3 -1.5 0.1 -1.5 -0.5 0 -0.6 -0.8 -0.9 -1.7 -0.8 -1 0.1 -2.5 -0.1 -3.3 -0.4 -4.7 -1.8 -9.1 -2.8 -10 -2.2 -0.5 0.3 -1 0.2 -1 -0.4 0 -0.5 -1.5 -1.3 -3.2 -1.7 -9.1 -1.9 -49.5 -20.2 -53.6 -24.1 -0.7 -0.7 -2 -1.3 -2.8 -1.3 -0.8 0 -1.4 -0.4 -1.4 -1 0 -0.5 -0.7 -1 -1.5 -1 -0.8 0 -1.5 -0.4 -1.5 -1 0 -0.5 -0.7 -1 -1.5 -1 -0.8 0 -1.5 -0.4 -1.5 -1 0 -0.5 -0.4 -1 -0.9 -1 -0.6 0 -2.2 -1.1 -3.7 -2.5 -1.5 -1.4 -3.3 -2.5 -3.9 -2.5 -0.7 0 -1.5 -0.7 -1.9 -1.5 -0.3 -0.8 -1.2 -1.5 -2 -1.5 -0.9 0 -2 -0.9 -2.6 -2 -0.6 -1.1 -1.6 -2 -2.3 -2 -0.7 0 -2.3 -1.3 -3.5 -3 -1.3 -1.6 -2.7 -3 -3.2 -3 -1.2 0 -23 -21.8 -23 -23.1 0 -0.4 -1.3 -1.8 -3 -3.1 -1.6 -1.2 -3 -2.8 -3 -3.5 0 -0.7 -0.9 -1.7 -2 -2.3 -1.1 -0.6 -2 -1.7 -2 -2.6 0 -0.8 -0.7 -1.7 -1.5 -2 -0.8 -0.4 -1.5 -1.3 -1.5 -2 0 -0.8 -0.7 -1.7 -1.5 -2 -0.8 -0.4 -1.5 -1.2 -1.5 -2 0 -0.8 -0.3 -1.4 -0.8 -1.4 -0.4 0 -1.3 -1.3 -2 -2.8 -0.6 -1.6 -2.1 -3.8 -3.2 -5 -1.1 -1.2 -2 -2.5 -2 -3.1 0 -0.5 -0.4 -1.1 -0.8 -1.3 -2.1 -0.8 -20.1 -39.4 -24.2 -51.8 -2.5 -7.4 -4.8 -13.6 -5.1 -13.8 -0.4 -0.2 -0.5 -1.2 -0.2 -2.2 0.3 -1.1 0.1 -2 -0.5 -2 -0.6 0 -0.8 -0.9 -0.5 -2 0.3 -1.1 0.1 -2 -0.5 -2 -0.6 0 -0.8 -0.8 -0.5 -1.9 0.3 -1 0 -2.2 -0.6 -2.5 -0.5 -0.4 -0.8 -1.3 -0.4 -2.1 0.3 -0.9 0 -2.1 -0.6 -2.9 -0.6 -0.7 -0.8 -1.6 -0.5 -1.9 0.4 -0.3 0.3 -1.4 -0.1 -2.4 -0.4 -1 -0.9 -2.9 -1.1 -4.3 -0.2 -1.4 -0.6 -3.8 -0.9 -5.5 -1.5 -9.4 -1.8 -16.4 -1.8 -39 0 -13.7 0.3 -27.2 0.7 -30 0.4 -2.7 0.9 -6.1 1 -7.5 0.2 -1.4 0.6 -3.3 1 -4.2 0.4 -0.9 0.5 -2.2 0.1 -2.8 -0.4 -0.6 -0.1 -1.7 0.5 -2.5 0.7 -0.8 1 -2.2 0.6 -3 -0.3 -0.8 0 -1.5 0.5 -1.5 0.6 0 0.9 -0.9 0.6 -2 -0.3 -1.1 -0.1 -2 0.5 -2 0.6 0 0.8 -0.9 0.5 -2 -0.3 -1.1 -0.1 -2 0.5 -2 0.6 0 0.8 -0.9 0.5 -2 -0.3 -1 -0.2 -2 0.2 -2.2 0.4 -0.2 2 -3.9 3.5 -8.3 2.7 -7.6 10.4 -25.4 11.6 -26.5 1.2 -1.2 10 -15.1 10 -15.9 0 -0.5 0.7 -1.1 1.5 -1.5 0.8 -0.3 1.5 -1.2 1.5 -2 0 -0.7 1.1 -2.1 2.5 -3 1.4 -0.9 2.5 -2.2 2.5 -2.9 0 -1.6 16.1 -17.7 17.7 -17.7 0.7 0 2.2 -1.4 3.5 -3 1.2 -1.7 4.6 -4.3 7.5 -5.7 2.9 -1.5 5.3 -3.1 5.3 -3.6 0 -0.4 0.5 -0.5 1 -0.2 2 1.2 5.2 -0.6 4.7 -2.6 -0.3 -1 -0.1 -2.2 0.5 -2.5 0.5 -0.3 0.8 -1.5 0.5 -2.5 -0.3 -1 -0.1 -2.2 0.4 -2.5 0.6 -0.3 0.9 -1.3 0.8 -2.2 -0.1 -1 0.1 -2.5 0.6 -3.5 0.4 -1 0.5 -2.1 0.1 -2.4 -0.3 -0.3 -0.1 -1.2 0.4 -1.9 0.6 -0.6 1.2 -2.7 1.4 -4.5 0.2 -1.9 0.6 -4.1 0.9 -4.9 1.7 -4.5 6.6 -25.4 6.1 -26.1 -0.3 -0.5 -0.1 -0.9 0.5 -0.9 0.5 0 1.3 -1.5 1.6 -3.3 2.4 -11.1 20.1 -53 24.6 -58 0.9 -0.9 2.2 -3 3 -4.5 0.8 -1.5 2 -3.1 2.6 -3.5 0.7 -0.4 1.3 -1.5 1.3 -2.2 0 -0.8 0.5 -1.5 1 -1.5 0.6 0 1.3 -0.8 1.7 -1.7 0.8 -2.5 10.5 -12.3 12 -12.3 0.8 0 1.6 -0.7 1.9 -1.5 0.4 -0.8 1.2 -1.5 1.9 -1.5 0.7 0 1.5 -0.3 1.7 -0.8 0.6 -1.4 16.2 -8.1 22.8 -9.7 4.8 -1.3 8.5 -1.5 14 -1 11.2 0.9 12.3 1.1 14.2 1.9 0.9 0.4 2.2 0.5 2.8 0.1 0.5 -0.3 1 -0.1 1 0.6 0 0.6 0.8 0.9 2 0.6 1.1 -0.3 2 -0.1 2 0.5 0 0.6 0.9 0.8 2 0.5 1.1 -0.3 2 -0.2 2 0.3 0 0.4 1.2 1.1 2.8 1.5 1.5 0.3 6.9 2.6 12.1 5.1 5.1 2.4 10 4.4 10.7 4.4 0.8 0 1.4 0.5 1.4 1 0 0.6 0.7 1 1.5 1 0.8 0 1.5 -0.4 1.5 -1 0 -0.5 0.7 -1 1.5 -1 0.8 0 2.2 -1.1 3.1 -2.5 0.9 -1.4 2 -2.5 2.4 -2.5 0.4 0 4.2 -2.1 8.6 -4.8 4.3 -2.6 10.5 -5.6 13.7 -6.7 3.1 -1 5.7 -2.2 5.7 -2.6 0 -0.4 0.9 -0.5 2 -0.2 1.1 0.3 2 0 2 -0.6 0 -0.5 0.7 -0.8 1.5 -0.5 0.8 0.4 2.1 0.2 2.8 -0.4 1.4 -1.1 29.7 -1.4 31.2 -0.2 0.6 0.4 2.4 1 4 1.4 3.6 0.8 22.9 9.8 23.3 10.9 0.2 0.4 1 0.7 1.7 0.7 0.7 0 1.5 0.7 1.9 1.5 0.3 0.8 1 1.5 1.7 1.5 0.6 0 2 1.1 3.1 2.5 1.1 1.4 2.5 2.5 3.2 2.5 1.5 0 7.6 6.2 7.6 7.7 0 0.6 1 2 2.3 3 1.3 1 2.6 2.6 3 3.5 0.3 1 1.1 1.8 1.7 1.8 0.5 0 1 0.5 1 1 0 1.3 7.1 12.2 8.5 13.2 0.6 0.3 2.2 3.3 3.7 6.5 2.5 5.6 3.2 7.6 8.7 23.3 1.4 4.1 2.9 7.6 3.2 7.8 0.4 0.2 0.5 1.2 0.2 2.2 -0.3 1.1 -0.1 2 0.5 2 0.6 0 0.8 0.9 0.5 2 -0.3 1.1 -0.1 2 0.5 2 0.6 0 0.8 0.9 0.5 2 -0.3 1.1 0 2 0.6 2 0.5 0 0.8 0.7 0.5 1.5 -0.3 0.8 -0.2 2 0.2 2.7 0.5 0.7 0.7 2.5 0.5 4 -0.1 1.6 0.1 2.8 0.6 2.8 0.4 0 0.9 1 1 2.3 0 1.2 0.4 4 0.8 6.2 0.7 4.3 1.1 7.6 1.3 11.3 0.3 3.3 3.2 2.8 3.2 -0.6 0 -1.5 0.6 -3.4 1.2 -4 2 -2 1.5 -36 -0.7 -46.4 -0.4 -2.1 -1.1 -3.8 -1.5 -3.8 -0.4 0 -1 -1.9 -1.3 -4.2 -0.3 -2.4 -1.1 -4.4 -1.6 -4.6 -0.6 -0.2 -1.1 -1.2 -1.1 -2.2 0 -2.3 -3.1 -9 -4.1 -9 -0.4 0 -1 -1.1 -1.3 -2.5 -0.4 -1.4 -1.1 -2.5 -1.6 -2.5 -0.6 0 -1 -0.6 -1 -1.4 0 -0.8 -0.7 -1.6 -1.5 -2 -0.8 -0.3 -1.5 -1.6 -1.5 -2.8 0 -1.3 -0.7 -3.6 -1.5 -5.2 -1.6 -3.1 -2 -9.2 -0.6 -10 0.4 -0.3 1.4 -2.6 2.1 -5.1 0.7 -2.5 1.7 -4.5 2.2 -4.5 0.4 0 1.3 -1.1 1.8 -2.4 1.3 -3.6 13 -9 19.5 -9.2 2.8 -0.1 5.2 0.2 5.5 0.5 2.2 2.9 31.2 13.7 39.5 14.7 2.2 0.3 5.4 0.8 7 1 5.4 0.8 32.4 0.4 34.5 -0.5 0.3 -0.1 2.1 -0.4 4 -0.6 6.5 -0.7 22.5 -6.4 32.6 -11.6 11.5 -6 17.9 -8 21.4 -6.7 1.3 0.5 3 0.6 3.7 0.4 0.7 -0.3 1.3 -0.2 1.3 0.2 0 0.4 2.5 2.1 5.6 3.6 3 1.6 5.9 3.6 6.2 4.5 0.4 0.9 1.8 3.6 3.2 6.1 1.7 3.3 2.4 6.1 2.4 10.5 0.1 3.3 -0.1 6.2 -0.4 6.5 -0.3 0.3 -1.6 3 -3 6 -1.4 3 -3.3 6.4 -4.3 7.5 -1 1.1 -2 3 -2.3 4.2 -0.4 1.3 -1 2.3 -1.5 2.3 -0.5 0 -0.9 0.7 -0.9 1.5 0 0.8 -0.4 1.5 -0.9 1.5 -1.5 0 -8.3 14.4 -8.6 18.2 -0.2 1.8 -0.5 3.5 -0.6 3.8 -1.2 2.8 -1.9 20 -0.8 20 0.6 0 0.8 1.2 0.4 2.9 -0.3 1.7 -0.2 3.2 0.4 3.6 0.6 0.3 0.8 1.7 0.5 3 -0.3 1.2 -0.1 2.6 0.4 2.9 0.6 0.3 0.8 1.5 0.5 2.6 -0.3 1.2 0 2 0.6 2 0.7 0 0.9 0.5 0.6 1 -1.1 1.7 10.5 36.2 14.5 43.2 1.2 2.2 1.3 8.5 0.1 9.2 -0.4 0.3 -1.4 2.6 -2.1 5.1 -0.7 2.5 -1.7 4.5 -2.2 4.5 -0.4 0 -1.3 1.1 -1.8 2.4 -1.4 3.7 -13.2 9.2 -19.5 9 -2.7 0 -6.1 -0.5 -7.5 -1.1 -1.4 -0.6 -7.2 -3.1 -12.9 -5.7 -11.9 -5.3 -25.9 -9.9 -27.7 -9.2 -0.8 0.3 -1.6 0.1 -1.8 -0.3 -1.1 -1.7 -28.1 -1.7 -29.2 0 -0.2 0.4 -1.1 0.6 -1.9 0.2 -0.9 -0.3 -2.1 -0.1 -2.8 0.4 -0.6 0.5 -3.4 1.8 -6 2.7 -3.6 1.4 -4.6 2.1 -3.7 3 1 1 3.7 1.4 12.3 1.8 2 0.1 3.7 0.6 3.7 1.1 0 0.5 1.5 0.8 3.3 0.6 1.7 -0.1 4 0.2 4.9 0.6 0.9 0.4 2.2 0.4 2.8 0 0.6 -0.4 1.6 -0.2 2.3 0.3 0.7 0.5 3.7 1.5 6.7 2.2 15.1 3.5 41.4 15.2 44.3 19.8 0.4 0.6 1.2 1.2 1.7 1.2 1.2 0 11.6 10.5 12.3 12.4 0.4 0.9 1.1 1.6 1.7 1.6 0.5 0 1 0.6 1 1.4 0 0.8 0.4 1.6 0.8 1.8 0.4 0.2 2.4 3.9 4.2 8.3 1.9 4.4 3.8 8.1 4.2 8.3 0.4 0.2 0.4 1 0.2 1.7 -0.3 0.8 -0.2 2 0.2 2.7 2.2 3.5 2.2 21.3 0.1 26.8 -0.4 0.8 -1.5 4 -2.7 7.1 -1.1 3 -3.6 8.2 -5.6 11.5 -2 3.2 -4.6 7.6 -5.7 9.6 l-2.1 3.8 2.2 2.3 c1.2 1.3 2.2 2.8 2.2 3.5 0 0.6 1.6 2.4 3.5 3.9 1.9 1.5 3.5 3.4 3.5 4.1 0 0.7 0.7 1.5 1.5 1.8 0.8 0.4 1.5 1 1.5 1.6 0 0.9 5.7 9.7 7 10.8 0.9 0.8 7.8 16.3 8.5 19.3 0.4 1.5 1.1 2.7 1.5 2.7 0.5 0 0.6 0.9 0.3 2 -0.3 1.1 0 2 0.6 2 0.5 0 0.8 0.7 0.5 1.5 -0.4 0.8 -0.2 2.1 0.3 2.8 1.1 1.4 1 26.4 -0.1 28.9 -0.4 0.9 -0.5 2.1 -0.2 2.7 0.4 0.5 0.2 1.2 -0.3 1.5 -0.5 0.3 -1.2 1.8 -1.5 3.3 -0.9 3.7 -6.9 16.7 -7.8 17.1 -0.5 0.2 -0.8 1 -0.8 1.8 0 0.8 -0.5 1.4 -1 1.4 -0.6 0 -1.3 0.7 -1.7 1.6 -0.7 2 -11.1 12.4 -12.4 12.4 -0.5 0 -1.2 0.7 -1.5 1.5 -0.4 0.8 -1.2 1.5 -1.9 1.5 -0.7 0 -1.5 0.3 -1.7 0.8 -0.5 1.1 -17.6 8.8 -23.8 10.7 -3 0.9 -6.2 1.9 -7 2.2 -0.8 0.4 -1.9 0.5 -2.4 0.4 -0.5 -0.1 -1.6 0.1 -2.5 0.5 -1.7 0.7 -4.9 1.3 -9.6 1.7 -4.8 0.5 -6.2 1.6 -8.1 6.5 -1 2.6 -2.4 5.3 -3.1 6 -0.7 0.7 -1.3 2 -1.3 2.8 0 0.8 -0.4 1.4 -1 1.4 -0.5 0 -1 0.7 -1 1.5 0 0.8 -0.4 1.5 -1 1.5 -0.5 0 -1 0.6 -1 1.3 0 0.7 -0.9 1.8 -2 2.5 -1.1 0.7 -2 1.6 -2 2.2 0 1.3 -12.6 14 -13.9 14 -0.6 0 -1.6 0.9 -2.3 2 -0.7 1.1 -1.6 2 -2.1 2 -0.7 0 -11.6 6.9 -12.7 8 -1.2 1.3 -21.1 9.9 -27.7 12.1 -4 1.2 -7.3 2.6 -7.3 3 0 0.4 -0.9 0.5 -2 0.2 -1.1 -0.3 -2 -0.1 -2 0.5 0 0.6 -0.9 0.8 -2 0.5 -1.1 -0.3 -2 -0.1 -2 0.5 0 0.6 -0.9 0.8 -2 0.5 -1.1 -0.3 -2 0 -2 0.6 0 0.5 -0.7 0.8 -1.5 0.5 -0.8 -0.4 -2.1 -0.1 -2.9 0.5 -0.7 0.6 -1.6 0.8 -1.9 0.5 -0.3 -0.4 -1.4 -0.3 -2.4 0.1 -1 0.5 -2.9 1 -4.3 1.1 -1.4 0.2 -4.3 0.6 -6.5 0.9 -11 1.6 -21.5 2.5 -33.5 2.9 -10.1 0.4 -10.5 0.5 -13 3.3 -1.4 1.6 -3.3 3.3 -4.2 3.6 -1 0.4 -1.8 1.1 -1.8 1.7 0 0.5 -0.4 1 -1 1 -0.5 0 -3.5 1.6 -6.5 3.5 -7.3 4.7 -22.5 12.1 -29.2 14.2 -2.9 0.9 -5.3 2 -5.3 2.4 0 0.4 -0.9 0.5 -2 0.2 -1.1 -0.3 -2 -0.1 -2 0.5 0 0.6 -0.9 0.8 -2 0.5 -1.2 -0.3 -2 0 -2 0.6 0 0.7 -0.4 0.9 -1 0.6 -0.5 -0.3 -2.9 -0.1 -5.2 0.6 -4.3 1.2 -5.6 1.4 -13.3 2.5 -5.8 0.7 -39.2 1.4 -39.8 0.7z m41.8 -26.8 c25 -4 45.2 -13.4 60.5 -28 l6.5 -6.2 18 -0.6 c19.6 -0.6 29.7 -1.7 44.9 -4.8 44.3 -9 74 -31.5 81.3 -61.6 0.9 -3.7 1.7 -6.9 1.7 -7 0.1 -0.1 5.9 -0.7 12.9 -1.3 24 -2 40.5 -7.9 50.8 -18 9.2 -9 12.9 -18.6 13 -33.4 0 -13.6 -3.7 -24.3 -13.2 -38.1 -6.3 -9.2 -21.4 -23.8 -29.6 -28.5 l-6 -3.6 6.9 -5.7 c13.1 -11.1 22.2 -24.1 24.8 -35.8 1 -4.4 1 -7.1 0.1 -12.4 -2.2 -12.7 -9.1 -22.2 -21.5 -30 -18.5 -11.5 -44.4 -17 -85.9 -18.2 l-21.8 -0.6 -4.4 -8.7 c-5.3 -10.1 -12.8 -18.9 -20.2 -23.7 l-5.3 -3.4 0 -11.7 c0 -40.1 -9.9 -79.5 -26 -103.9 -14.9 -22.7 -34.3 -34.3 -55 -33 -17.5 1.2 -29.3 7 -44 21.9 l-9.6 9.8 -3.5 -2.6 c-12.3 -9.2 -31.3 -18.2 -44.1 -20.8 -27.4 -5.7 -42.8 4.3 -59.8 38.9 -8.1 16.4 -13.5 31.5 -19.5 55.1 -13.8 53.6 -24.2 139 -19.6 160.9 l0.9 4 0.1 -3.5 c0.1 -5.1 4.5 -21.1 9.6 -35.6 12 -34 30 -57.4 54.6 -70.8 33.9 -18.5 80.1 -14.6 134.9 11.3 2.5 1.2 2.5 1.4 2.5 13.1 0 6.6 -0.2 12 -0.5 12 -0.3 0 -5.4 -0.9 -11.5 -1.9 -62.1 -10.9 -112.9 1.9 -148.9 37.5 -14.7 14.5 -26.1 31.6 -34 50.6 -2 4.8 -3.6 9.8 -3.6 11.2 0 4.1 6.6 28.5 10.5 39.2 4.9 13.1 14.1 31.6 20.9 41.8 8.1 12.2 7.6 12.1 13.1 2 14.4 -26.7 37.4 -56.4 62.6 -81 20.2 -19.6 41 -35.2 65.4 -48.8 10.1 -5.6 34.4 -16.6 36.8 -16.6 0.7 0 2 1.3 3 2.9 2.9 4.9 14.3 14.8 19.2 16.7 l4.7 1.8 -0.6 5 c-1.2 8.5 -9.5 32 -16.1 45 -26.5 52.5 -73.4 93.1 -132.8 115 l-11.9 4.3 10.4 7.4 c30.3 21.8 53.5 31.7 85.4 36.5 32.9 4.9 64.5 -5.4 89.6 -29.4 9.6 -9.1 16.5 -18.4 21.7 -28.8 8.4 -16.9 10.7 -28.6 9.8 -50.7 -1.1 -27.8 -5.2 -44.5 -20.7 -85.1 -2.3 -6 -3.8 -11.2 -3.3 -11.7 0.4 -0.4 3.6 -1.1 6.9 -1.4 l6.1 -0.7 9.5 15.3 c23.7 38.3 39.1 71.1 43.4 91.9 3.8 18.9 -1.2 41.5 -13.3 59.7 -5.5 8.3 -18.2 21.3 -26.6 27.1 -20.7 14.3 -48.5 23.6 -81.7 27.3 -16 1.7 -47.3 1.5 -61.5 -0.5 -94.4 -13.5 -161.9 -82.3 -177.1 -180.6 -2.5 -16.4 -3 -51.3 -1 -70 1.8 -16.4 5.1 -34.4 9.1 -50 1.3 -5.2 2.2 -9.6 2 -9.9 -0.2 -0.2 -4 2.9 -8.4 6.8 -27.9 25.1 -41.8 53.1 -47.1 94.6 -1.6 12.2 -1.3 44.3 0.5 58 8.8 67.3 43.4 123.7 98.5 160.7 23.9 16.1 57.3 29.3 82.5 32.8 5 0.6 9.7 1.3 10.5 1.5 5 1 35.7 0.3 43.5 -1z m161.7 -373.8 c10.5 -6.6 22.3 -11.7 34.4 -14.8 7.4 -1.9 11.4 -2.3 23.4 -2.3 12.9 0.1 15.8 0.4 26.3 3.2 6.5 1.7 17.1 5.4 23.5 8.2 16.7 7.4 15.7 7.5 12.2 -1 -9.2 -22.3 -14.8 -44.4 -15.7 -62 -1 -19.9 3.5 -35.3 16.2 -55.5 4.1 -6.5 7.3 -12 7.1 -12.3 -0.2 -0.2 -4.6 1.8 -9.6 4.3 -22 11.1 -44.8 16.1 -68.5 15.2 -21.2 -0.8 -39.6 -5.2 -55.7 -13.3 -3.7 -1.9 -7 -3.4 -7.2 -3.4 -0.3 0 1.3 2.8 3.4 6.3 8.7 13.9 15 32.8 17.1 51.1 2.5 22.7 -2.6 51.4 -13.2 74.4 -2.1 4.5 -3.5 8.1 -3.1 7.8 0.4 -0.2 4.6 -2.9 9.4 -5.9z"/>
  <path d="M509.5 440.2 c-4.9 -3 -9.6 -9.2 -13.7 -17.9 -4.3 -9.3 -22.1 -61.3 -20.9 -61.3 3.7 0 30.7 13.4 41.6 20.5 19 12.6 31.5 28.4 31.5 39.9 0 4.6 -5 12 -10.3 15 -4.6 2.8 -15.6 5.6 -21.7 5.6 -1.9 0 -4.9 -0.8 -6.5 -1.8z"/>
  <path d="M498.7 324.5 c-9.4 -2.4 -22.8 -9.9 -30.7 -17.2 -7.8 -7.2 -13.5 -17.2 -14.6 -25.5 l-0.7 -4.7 3.9 -0.7 c2.2 -0.5 12.9 -0.8 23.9 -0.8 22.8 -0.1 32.8 1.4 43.2 6.5 7.9 3.8 10.3 7.4 10.3 15.6 0 11.6 -4.4 21.1 -11.8 25.1 -5.3 3 -15.5 3.7 -23.5 1.7z"/>
  <path d="M342.4 167.8 c-5.5 -5.7 -13.3 -14.3 -17.5 -19.3 -10.2 -12.1 -31 -38.5 -31.6 -40.2 -0.8 -2.1 9.5 -17.1 17.2 -25 10.7 -10.9 15.2 -11 22.2 -0.6 11.3 16.9 22.3 58.8 22.3 85.2 0 7.8 -0.3 10.1 -1.3 10.1 -0.8 0 -5.9 -4.6 -11.3 -10.2z"/>
  <path d="M169 165.4 c0 -2.1 0.7 -10 1.5 -17.4 6.1 -57.6 22.4 -81.7 45.5 -67.7 5.7 3.4 17.7 15.5 24.5 24.8 7.4 9.8 20.5 31 19.9 32 -0.2 0.4 -5.4 0.7 -11.6 0.8 -31.8 0.5 -56.4 9.1 -74 25.8 l-5.8 5.6 0 -3.9z"/>
 </g>
</svg>